<?xml version="1.0" encoding="UTF-8"?>
<svg xmlns="http://www.w3.org/2000/svg" viewBox="0 0 64 64" width="64" height="64" aria-hidden="true">
  <rect x="6" y="20" width="52" height="34" rx="4" ry="4" fill="#2b1919" stroke="#b71c1c" stroke-width="2"/>
  <path d="M32 20c0-6 10-6 12-2 2 4-2 10-8 10" fill="#b71c1c" opacity="0.06"/>
  <path d="M32 20c0-6-10-6-12-2-2 4 2 10 8 10" fill="#b71c1c" opacity="0.06"/>
  <rect x="26" y="28" width="12" height="26" fill="#3a2323"/>
  <path d="M32 8c4 0 8 4 8 8s-4 8-8 8-8-4-8-8 4-8 8-8z" fill="#8f0f12" stroke="#b71c1c" stroke-width="1"/>
</svg>
